<svg xmlns="http://www.w3.org/2000/svg" viewBox="0 0 296.5 267.94"><defs><style>.cls-1{fill:#6667ab;stroke:#fe799e;stroke-miterlimit:10;stroke-width:12px;}.cls-2{fill:#fe799e;}</style></defs><g id="레이어_2" data-name="레이어 2"><g id="레이어_1-2" data-name="레이어 1"><path class="cls-1" d="M78.57,261.94,147,74h141L245.17,191.46a35.14,35.14,0,0,1-13,16.7q-9.45,6.79-19,6.79h-47l-17.1,47Z"/><path class="cls-2" d="M177,178.54h-7.53s2-5.43,2.76-7.5l16.38-45c.75-2.07,2.86-7.5,2.86-7.5h37.37a4.81,4.81,0,0,1,4.46,2.22,5.76,5.76,0,0,1,.31,5.28l-16.38,45a11.29,11.29,0,0,1-4.17,5.33,10.36,10.36,0,0,1-6.06,2.17Z"/><path class="cls-1" d="M8.57,193.94,77,6h141L175.17,123.46a35.14,35.14,0,0,1-13,16.7q-9.45,6.79-19,6.79h-47l-17.1,47Z"/><path class="cls-2" d="M107,110.54H99.48s2-5.43,2.76-7.5l16.38-45c.75-2.07,2.86-7.5,2.86-7.5h37.37a4.81,4.81,0,0,1,4.46,2.22,5.76,5.76,0,0,1,.31,5.28l-16.38,45a11.29,11.29,0,0,1-4.17,5.33,10.36,10.36,0,0,1-6.06,2.17Z"/></g></g></svg>